<?xml version="1.0" encoding="utf-8"?>
<!-- Generator: Adobe Illustrator 16.0.0, SVG Export Plug-In . SVG Version: 6.00 Build 0)  -->
<!DOCTYPE svg PUBLIC "-//W3C//DTD SVG 1.1//EN" "http://www.w3.org/Graphics/SVG/1.1/DTD/svg11.dtd">
<svg version="1.1" id="Layer_1" xmlns="http://www.w3.org/2000/svg" xmlns:xlink="http://www.w3.org/1999/xlink" x="0px" y="0px"
	 width="64px" height="64px" viewBox="0 0 64 64" enable-background="new 0 0 64 64" xml:space="preserve">
<path d="M56.898,2H11.546c-1.207,0-2.184,0.978-2.184,2.185v0.12c0.559-0.551,1.325-0.893,2.17-0.893h0.108l7.632,1.844h30.513
	c1.206,0,2.185,0.978,2.185,2.184v1.663h5.51c0,0,0.444,0,0.444,0.364c0,0.364-0.444,0.364-0.444,0.364H38.208l6.174,1.492h8.983
	c1.206,0,2.185,0.978,2.185,2.184v1.664h1.931c0,0,0.444,0,0.444,0.364c0,0.364-0.444,0.364-0.444,0.364h-7.333v26.795h6.751
	c1.206,0,2.184-0.978,2.184-2.184V4.184C59.082,2.978,58.104,2,56.898,2z"/>
<g>
	<path d="M47.053,12.904L11.532,4.321c-1.206,0-2.184,0.978-2.184,2.184v19.929c1.281-4.372,4.919-7.857,9.339-8.519
		c0.5-0.075,1.008-0.113,1.509-0.113c5.55,0,9.921,4.591,9.952,10.453v6.258l3.709,2.242v17.128l13.195,4.154
		c1.206,0,2.185-0.978,2.185-2.185V15.088C49.237,13.882,48.259,12.904,47.053,12.904z M35.516,30.289
		c-1.331-0.301-2.415-1.634-2.421-2.975c-0.006-1.342,1.067-2.186,2.398-1.885c1.331,0.301,2.414,1.633,2.421,2.975
		C37.92,29.745,36.846,30.59,35.516,30.289z M45.256,25.519c-0.062,2.356-0.192,4.848-1.094,6.845
		c-0.202,0.447-0.475,0.978-1.069,0.762c-2.282-0.827-2.219-5.146-2.985-7.106c-0.441-1.128-1.706-2.86-2.68-3.497
		c-0.918-0.6-1.812-0.847-2.79-0.808c-0.889,0.036-1.603,0.274-2.292,0.753c-0.261,0.181-0.479,0.421-0.663,0.683
		c-0.438,0.621-0.924,0.983-1.209-0.026c-0.643-2.268-0.678-4.714,0.407-6.438c0.785-1.248,2.267-2.327,4.011-1.444
		c0.354,0.179,0.678,0.432,0.96,0.741c2.218,2.43,2.816,6,5.608,8.014c1.459,1.052,2.129-1.368,3.131-1.783
		C45.412,21.875,45.259,25.396,45.256,25.519z"/>
	<path fill="#231F20" d="M20.196,23.436c-0.194,0-0.393,0.015-0.592,0.044c-2.531,0.379-4.578,3.004-4.563,5.852v5.221l1.628-0.285
		h7.29l0-6.541C23.947,25.242,22.364,23.436,20.196,23.436z"/>
</g>
<path fill="#999999" d="M29.238,28.259c-0.028-5.354-4-9.547-9.042-9.547c-0.455,0-0.917,0.035-1.374,0.104
	c-5.108,0.765-9.087,5.641-9.059,11.099v6.819c0,0.597,0.978,1.081,2.184,1.081c1.207,0,2.184-0.484,2.184-1.081v-7.397
	c-0.017-3.288,2.373-6.312,5.338-6.756s5.383,1.859,5.4,5.147v7.352c0,0.597,0.978,1.081,2.184,1.081
	c1.207,0,2.184-0.484,2.184-1.081V28.259z"/>
<g>
	<polygon fill="#999999" points="24.552,40.545 30.468,48.701 24.552,62 32.948,56.926 32.948,37.269 	"/>
	<polygon fill="#999999" points="24.552,40.545 9.362,40.545 9.362,61.977 24.552,62 16.445,51.716 	"/>
</g>
<path fill="#999999" d="M30.1,35.443c-0.245,0.961-1.449,1.627-3.046,1.627c-1.74,0-3.014-0.79-3.087-1.893h-0.007h-7.211
	l-1.708,0.299v1.258c-0.001,1.153-1.302,1.99-3.094,1.99c-1.793,0-3.094-0.837-3.094-1.991v-0.176l-3.935,0.688v21.455l3.534,2.895
	V39.635h15.929h0l7.584-2.96L30.1,35.443z"/>
<path fill="#999999" d="M24.552,42.095l-6.966,9.599l6.748,8.559l5.09-11.441L24.552,42.095z M22.898,55.981l0.485-4.903
	c-0.672-0.371-1.145-1.243-1.145-2.262c0-1.354,0.835-2.451,1.866-2.451s1.866,1.098,1.866,2.451c0,0.873-0.348,1.637-0.87,2.071
	l0.642,4.166L22.898,55.981z"/>
</svg>
